<svg xmlns="http://www.w3.org/2000/svg" viewBox="0 0 800 520">
  <defs>
    <linearGradient id="g" x1="0" x2="1" y1="0" y2="1">
      <stop offset="0" stop-color="#0d6c34"/>
      <stop offset="1" stop-color="#138147"/>
    </linearGradient>
  </defs>
  <rect width="800" height="520" fill="url(#g)"/>
  <circle cx="150" cy="120" r="70" fill="#ffffff22"/>
  <circle cx="690" cy="410" r="90" fill="#ffffff18"/>
  <rect x="120" y="120" width="560" height="280" rx="28" fill="#fff"/>
  <path d="M400 170c-78 0-140 56-140 126s62 126 140 126 140-56 140-126-62-126-140-126Zm0 38c54 0 98 39 98 88s-44 88-98 88-98-39-98-88 44-88 98-88Z" fill="#e8f3ec"/>
  <text x="400" y="245" font-size="34" text-anchor="middle" fill="#0d6c34" font-family="Arial, sans-serif" font-weight="700">Noorani Qaida</text>
  <text x="400" y="290" font-size="22" text-anchor="middle" fill="#486355" font-family="Arial, sans-serif">Arabic letters, makharij, basics</text>
</svg>
